# xmcd
# 
# Track frame offsets:
#     150
#     14478
#     37609
#     55213
#     69050
#     84245
#     96405
#     108446
#     121372
#     141058
#     150440
#     164329
#     175632
#     186084
#     196910
# 
# Disc length: 2877
# 
# Revision: 2
# Processed by: cddbd v1.5.2PL0 Copyright (c) Steve Scherf et al.
# Submitted via: fre:ac v1.0.31
# 
DISCID=b20b3b0f
DTITLE=Chicken Shack - The Complete Blue Horizon Sessions - Disc 3
DYEAR=2005
DGENRE=Blues
TTITLE0=Smartest Girl In Town (previously unreleased)
TTITLE1=Hideaway (previously unreleased)
TTITLE2=The Things You Put Me Through
TTITLE3=Diary Of Your Life
TTITLE4=Pocket
TTITLE5=Never Ever
TTITLE6=Sad Clown
TTITLE7=Maudie
TTITLE8=Telling Your Fortune
TTITLE9=Tired Eyes
TTITLE10=Some Other Time
TTITLE11=Going Round
TTITLE12=Andalucian Blues
TTITLE13=You Knew You Did You Did
TTITLE14=She Didn't Use Her Loaf
EXTD=
EXTT0=
EXTT1=
EXTT2=
EXTT3=
EXTT4=
EXTT5=
EXTT6=
EXTT7=
EXTT8=
EXTT9=
EXTT10=
EXTT11=
EXTT12=
EXTT13=
EXTT14=
PLAYORDER=
